PathFileType	4	(X/Y/Z)	 0.16m3min.trc
DataRate	CameraRate	NumFrames	NumMarkers	Units	OrigDataRate	OrigDataStartFrame	OrigNumFrames
200	200	11	35	m	200	376	1000
Frame#	Time	C7			LSH			RSH			MAN			RASI			LASI			HIPR			HIPL			RPSI			LPSI			COX			RTHI1			RTHI2			RTHI3			RTHI4			RSHA1			RSHA2			RSHA3			RSHA4			RHEEL			RMET5			RMET1			RTOE			LTHI1			LTHI2			LTHI3			LTHI4			LSHA1			LSHA2			LSHA3			LSHA4			LHEEL			LMET5			LMET1			LTOE			
		X1	Y1	Z1	X2	Y2	Z2	X3	Y3	Z3	X4	Y4	Z4	X5	Y5	Z5	X6	Y6	Z6	X7	Y7	Z7	X8	Y8	Z8	X9	Y9	Z9	X10	Y10	Z10	X11	Y11	Z11	X12	Y12	Z12	X13	Y13	Z13	X14	Y14	Z14	X15	Y15	Z15	X16	Y16	Z16	X17	Y17	Z17	X18	Y18	Z18	X19	Y19	Z19	X20	Y20	Z20	X21	Y21	Z21	X22	Y22	Z22	X23	Y23	Z23	X24	Y24	Z24	X25	Y25	Z25	X26	Y26	Z26	X27	Y27	Z27	X28	Y28	Z28	X29	Y29	Z29	X30	Y30	Z30	X31	Y31	Z31	X32	Y32	Z32	X33	Y33	Z33	X34	Y34	Z34	X35	Y35	Z35	
376	1.8800	-0.333819	1.538932	-0.496915	-0.270441	1.520065	-0.732706	-0.249808	1.516446	-0.286972	-0.176172	1.486205	-0.511002	-0.177308	1.021810	-0.392984	-0.189991	1.022424	-0.624300	-0.251572	1.085221	-0.338765	-0.256418	1.078135	-0.666620	-0.363610	1.058348	-0.446064	-0.366443	1.062815	-0.549956	-0.371505	1.065880	-0.495183	-0.222523	0.793566	-0.296735	-0.195830	0.744062	-0.280055	-0.136681	0.773191	-0.279610	-0.158452	0.828635	-0.296211	-0.220857	0.382559	-0.256698	-0.242884	0.345375	-0.260942	-0.187527	0.320927	-0.264489	-0.170560	0.357218	-0.264416	-0.389925	0.066665	-0.332084	-0.211749	0.026244	-0.244167	-0.166901	0.040664	-0.334265	-0.136082	0.029168	-0.329138	-0.217653	0.775477	-0.722517	-0.189804	0.721653	-0.733878	-0.130279	0.745733	-0.735054	-0.149218	0.802692	-0.723932	-0.272163	0.338436	-0.728576	-0.293592	0.304829	-0.722760	-0.237953	0.276098	-0.727767	-0.222867	0.317225	-0.733945	-0.429431	0.066259	-0.641031	-0.268753	0.023186	-0.753742	-0.204914	0.037541	-0.670906	-0.172951	0.026902	-0.681612	
377	1.8850	-0.335049	1.544502	-0.497366	-0.272295	1.526239	-0.733081	-0.251091	1.523200	-0.287474	-0.177184	1.492797	-0.511537	-0.175405	1.027564	-0.393153	-0.188091	1.028237	-0.624582	-0.249720	1.091464	-0.339058	-0.253944	1.084605	-0.666796	-0.361620	1.064044	-0.446183	-0.364463	1.068606	-0.550261	-0.369337	1.071414	-0.495260	-0.222584	0.798980	-0.297070	-0.196287	0.749174	-0.280502	-0.136913	0.777756	-0.280236	-0.158143	0.833369	-0.296906	-0.223715	0.385379	-0.257039	-0.245536	0.348081	-0.261250	-0.190068	0.323937	-0.264585	-0.173292	0.360356	-0.264604	-0.389661	0.067977	-0.331740	-0.211698	0.026242	-0.244248	-0.166862	0.040575	-0.334327	-0.136116	0.029116	-0.329224	-0.218445	0.780827	-0.722532	-0.191196	0.726717	-0.733903	-0.131430	0.750225	-0.735271	-0.149736	0.807328	-0.724184	-0.274988	0.340872	-0.728190	-0.296042	0.307049	-0.722405	-0.240150	0.278892	-0.727690	-0.225492	0.320174	-0.733800	-0.429110	0.067616	-0.640981	-0.268780	0.023244	-0.753528	-0.204833	0.037518	-0.670909	-0.172944	0.026906	-0.681610	
378	1.8900	-0.336262	1.550393	-0.497828	-0.274076	1.532744	-0.733449	-0.252320	1.530309	-0.288007	-0.178186	1.499709	-0.512087	-0.173480	1.033596	-0.393394	-0.186188	1.034466	-0.624927	-0.247696	1.098005	-0.339420	-0.251598	1.091520	-0.666972	-0.359581	1.070091	-0.446304	-0.362455	1.074742	-0.550567	-0.367169	1.077295	-0.495381	-0.222808	0.804714	-0.297469	-0.196911	0.754576	-0.281090	-0.137383	0.782595	-0.280862	-0.157975	0.838356	-0.297555	-0.226914	0.388257	-0.257304	-0.248411	0.350811	-0.261492	-0.192733	0.327104	-0.264653	-0.176263	0.363698	-0.264730	-0.389354	0.069576	-0.331383	-0.211644	0.026241	-0.244332	-0.166841	0.040499	-0.334362	-0.136172	0.029067	-0.329299	-0.219156	0.786610	-0.722596	-0.192528	0.732207	-0.733960	-0.132485	0.755081	-0.735377	-0.150167	0.812349	-0.724350	-0.278015	0.343511	-0.727726	-0.298664	0.309442	-0.721963	-0.242506	0.281893	-0.727555	-0.228316	0.323359	-0.733595	-0.428714	0.069243	-0.640933	-0.268821	0.023322	-0.753266	-0.204743	0.037489	-0.670906	-0.172947	0.026908	-0.681606	
379	1.8950	-0.337452	1.556570	-0.498299	-0.275790	1.539537	-0.733808	-0.253491	1.537726	-0.288569	-0.179169	1.506890	-0.512650	-0.171532	1.039866	-0.393709	-0.184297	1.041055	-0.625327	-0.245519	1.104835	-0.339831	-0.249383	1.098798	-0.667145	-0.357513	1.076465	-0.446420	-0.360443	1.081181	-0.550874	-0.365037	1.083500	-0.495546	-0.223193	0.810754	-0.297928	-0.197744	0.760254	-0.281757	-0.138064	0.787606	-0.281441	-0.157954	0.843574	-0.298145	-0.230423	0.391222	-0.257489	-0.251479	0.353534	-0.261715	-0.195507	0.330439	-0.264696	-0.179446	0.367245	-0.264801	-0.388953	0.071423	-0.331019	-0.211589	0.026240	-0.244418	-0.166832	0.040437	-0.334374	-0.136249	0.029025	-0.329363	-0.219787	0.792777	-0.722702	-0.193802	0.738075	-0.734043	-0.133475	0.760269	-0.735403	-0.150510	0.817700	-0.724441	-0.281188	0.346397	-0.727187	-0.301403	0.312092	-0.721460	-0.244978	0.285188	-0.727394	-0.231281	0.326816	-0.733344	-0.428234	0.071185	-0.640900	-0.268868	0.023419	-0.752959	-0.204645	0.037456	-0.670898	-0.172965	0.026908	-0.681599	
380	1.9000	-0.338615	1.562997	-0.498776	-0.277439	1.546576	-0.734157	-0.254612	1.545409	-0.289157	-0.180129	1.514300	-0.513228	-0.169573	1.046355	-0.394089	-0.182429	1.047950	-0.625772	-0.243184	1.111935	-0.340295	-0.247292	1.106375	-0.667349	-0.355431	1.083139	-0.446521	-0.358447	1.087900	-0.551181	-0.362947	1.090000	-0.495750	-0.223736	0.817053	-0.298432	-0.198761	0.766173	-0.282543	-0.138950	0.792811	-0.281989	-0.158084	0.848997	-0.298684	-0.234156	0.394340	-0.257592	-0.254647	0.356331	-0.261963	-0.198378	0.333978	-0.264715	-0.182795	0.371037	-0.264840	-0.388441	0.073550	-0.330654	-0.211533	0.026248	-0.244508	-0.166833	0.040388	-0.334362	-0.136348	0.028989	-0.329412	-0.220352	0.799274	-0.722837	-0.195035	0.744261	-0.734134	-0.134403	0.765742	-0.735374	-0.150784	0.823336	-0.724467	-0.284427	0.349618	-0.726621	-0.304204	0.315071	-0.720919	-0.247518	0.288831	-0.727234	-0.234327	0.330600	-0.733076	-0.427661	0.073465	-0.640922	-0.268907	0.023531	-0.752616	-0.204548	0.037418	-0.670893	-0.173001	0.026911	-0.681588	
381	1.9050	-0.339737	1.569635	-0.499263	-0.279017	1.553825	-0.734494	-0.255687	1.553313	-0.289766	-0.181072	1.521886	-0.513823	-0.167626	1.053042	-0.394526	-0.180592	1.055091	-0.626247	-0.240723	1.119272	-0.340788	-0.245315	1.114178	-0.667590	-0.353353	1.090097	-0.446605	-0.356487	1.094872	-0.551492	-0.360923	1.096766	-0.495995	-0.224421	0.823595	-0.298972	-0.200071	0.772336	-0.283256	-0.140024	0.798217	-0.282511	-0.158356	0.854619	-0.299177	-0.238037	0.397652	-0.257735	-0.257880	0.359289	-0.262242	-0.201309	0.337773	-0.264693	-0.186281	0.375073	-0.264829	-0.387855	0.076052	-0.330266	-0.211475	0.026269	-0.244605	-0.166834	0.040355	-0.334329	-0.136464	0.028963	-0.329446	-0.220877	0.806050	-0.722988	-0.196245	0.750722	-0.734221	-0.135300	0.771456	-0.735294	-0.151017	0.829217	-0.724450	-0.287670	0.353212	-0.726052	-0.307016	0.318434	-0.720370	-0.250086	0.292851	-0.727097	-0.237395	0.334746	-0.732822	-0.426985	0.076103	-0.641040	-0.268923	0.023654	-0.752243	-0.204457	0.037368	-0.670890	-0.173062	0.026914	-0.681573	
382	1.9100	-0.340808	1.576447	-0.499756	-0.280527	1.561239	-0.734817	-0.256722	1.561394	-0.290400	-0.181979	1.529619	-0.514428	-0.165716	1.059916	-0.395010	-0.178800	1.062428	-0.626736	-0.238175	1.126814	-0.341305	-0.243443	1.122154	-0.667868	-0.351299	1.097317	-0.446672	-0.354577	1.102071	-0.551818	-0.358933	1.103763	-0.496242	-0.225235	0.830356	-0.299538	-0.201620	0.778738	-0.283902	-0.141258	0.803803	-0.283005	-0.158759	0.860437	-0.299635	-0.241989	0.401219	-0.258001	-0.261201	0.362566	-0.262433	-0.204294	0.341867	-0.264621	-0.189842	0.379385	-0.264811	-0.387178	0.078878	-0.329770	-0.211412	0.026307	-0.244713	-0.166821	0.040323	-0.334290	-0.136599	0.028941	-0.329469	-0.221390	0.813057	-0.723137	-0.197454	0.757415	-0.734293	-0.136213	0.777388	-0.735155	-0.151247	0.835306	-0.724409	-0.290863	0.357198	-0.725509	-0.309787	0.322183	-0.719844	-0.252640	0.297243	-0.727014	-0.240433	0.339254	-0.732604	-0.426196	0.079101	-0.641286	-0.268903	0.023792	-0.751848	-0.204375	0.037318	-0.670908	-0.173153	0.026901	-0.681545	
383	1.9150	-0.341821	1.583401	-0.500254	-0.281961	1.568780	-0.735121	-0.257714	1.569613	-0.291054	-0.182849	1.537456	-0.515038	-0.163871	1.066949	-0.395529	-0.177064	1.069911	-0.627223	-0.235591	1.134531	-0.341806	-0.241665	1.130264	-0.668184	-0.349289	1.104766	-0.446733	-0.352734	1.109482	-0.552173	-0.357027	1.110976	-0.496504	-0.226153	0.837326	-0.300115	-0.203372	0.785368	-0.284451	-0.142598	0.809566	-0.283479	-0.159278	0.866457	-0.300072	-0.245957	0.405116	-0.258292	-0.264537	0.366168	-0.262634	-0.207321	0.346298	-0.264508	-0.193441	0.384030	-0.264775	-0.386391	0.082001	-0.329173	-0.211341	0.026364	-0.244839	-0.166796	0.040292	-0.334238	-0.136753	0.028924	-0.329476	-0.221919	0.820248	-0.723275	-0.198686	0.764293	-0.734342	-0.137177	0.783505	-0.735023	-0.151500	0.841571	-0.724354	-0.293979	0.361528	-0.725002	-0.312479	0.326293	-0.719368	-0.255134	0.302005	-0.727003	-0.243403	0.344097	-0.732442	-0.425281	0.082450	-0.641694	-0.268839	0.023930	-0.751426	-0.204308	0.037270	-0.670957	-0.173274	0.026889	-0.681517	
384	1.9200	-0.342769	1.590461	-0.500754	-0.283316	1.576416	-0.735408	-0.258666	1.577928	-0.291729	-0.183688	1.545370	-0.515649	-0.162124	1.074125	-0.396059	-0.175392	1.077500	-0.627699	-0.232988	1.142390	-0.342316	-0.239975	1.138472	-0.668543	-0.347342	1.112417	-0.446799	-0.350962	1.117081	-0.552566	-0.355190	1.118401	-0.496775	-0.227150	0.844476	-0.300685	-0.205182	0.792186	-0.285022	-0.144026	0.815548	-0.283959	-0.159891	0.872675	-0.300511	-0.249893	0.409373	-0.258626	-0.267862	0.370137	-0.262876	-0.210380	0.351081	-0.264360	-0.197045	0.389008	-0.264733	-0.385478	0.085431	-0.328530	-0.211257	0.026449	-0.244996	-0.166753	0.040266	-0.334166	-0.136925	0.028911	-0.329462	-0.222477	0.827577	-0.723397	-0.199948	0.771316	-0.734363	-0.138187	0.789761	-0.734888	-0.151800	0.847977	-0.724298	-0.296982	0.366179	-0.724572	-0.315063	0.330710	-0.718960	-0.257535	0.307068	-0.727072	-0.246278	0.349256	-0.732371	-0.424226	0.086123	-0.642285	-0.268724	0.024074	-0.750986	-0.204264	0.037221	-0.671042	-0.173425	0.026878	-0.681491	
385	1.9250	-0.343642	1.597592	-0.501258	-0.284583	1.584116	-0.735675	-0.259568	1.586300	-0.292426	-0.184487	1.553326	-0.516253	-0.160493	1.081417	-0.396582	-0.173795	1.085149	-0.628152	-0.230408	1.150370	-0.342853	-0.238361	1.146748	-0.668926	-0.345476	1.120240	-0.446887	-0.349263	1.124840	-0.553023	-0.353467	1.126001	-0.497075	-0.228200	0.851786	-0.301235	-0.207004	0.799173	-0.285606	-0.145519	0.821747	-0.284467	-0.160578	0.879077	-0.300955	-0.253783	0.413946	-0.259031	-0.271214	0.374517	-0.263072	-0.213460	0.356206	-0.264182	-0.200638	0.394288	-0.264686	-0.384414	0.089135	-0.327871	-0.211152	0.026562	-0.245192	-0.166683	0.040248	-0.334067	-0.137109	0.028908	-0.329424	-0.223076	0.835003	-0.723500	-0.201242	0.778452	-0.734360	-0.139256	0.796128	-0.734736	-0.152157	0.854492	-0.724256	-0.299859	0.371069	-0.724226	-0.317514	0.335364	-0.718639	-0.259813	0.312371	-0.727223	-0.249039	0.354668	-0.732397	-0.423014	0.090096	-0.643065	-0.268557	0.024228	-0.750529	-0.204236	0.037185	-0.671176	-0.173611	0.026861	-0.681468	
386	1.9300	-0.344438	1.604762	-0.501763	-0.285751	1.591844	-0.735919	-0.260418	1.594694	-0.293149	-0.185242	1.561289	-0.516848	-0.158992	1.088806	-0.397083	-0.172285	1.092824	-0.628572	-0.227921	1.158440	-0.343403	-0.236811	1.155071	-0.669332	-0.343712	1.128193	-0.447016	-0.347642	1.132719	-0.553546	-0.351863	1.133760	-0.497411	-0.229282	0.859235	-0.301753	-0.208768	0.806300	-0.286253	-0.147037	0.828108	-0.284998	-0.161317	0.885642	-0.301409	-0.257616	0.418812	-0.259451	-0.274574	0.379255	-0.263247	-0.216555	0.361632	-0.263995	-0.204192	0.399857	-0.264653	-0.383160	0.093069	-0.327215	-0.211020	0.026709	-0.245438	-0.166581	0.040235	-0.333930	-0.137306	0.028919	-0.329348	-0.223710	0.842489	-0.723588	-0.202560	0.785661	-0.734338	-0.140383	0.802578	-0.734584	-0.152569	0.861088	-0.724221	-0.302605	0.376127	-0.723973	-0.319815	0.340173	-0.718411	-0.261946	0.317850	-0.727468	-0.251673	0.360265	-0.732517	-0.421632	0.094334	-0.644019	-0.268334	0.024404	-0.750060	-0.204219	0.037183	-0.671375	-0.173820	0.026850	-0.681461	
